<svg width="94" height="94" viewBox="0 0 94 94" fill="none" xmlns="http://www.w3.org/2000/svg">
<circle cx="46.6928" cy="47.1254" r="46.6479" fill="#C4C4C4"/>
<path fill-rule="evenodd" clip-rule="evenodd" d="M46.6928 42.9588C48.6811 42.9588 50.588 42.1689 51.9939 40.763C53.3999 39.357 54.1898 37.4501 54.1898 35.4618C54.1898 33.4735 53.3999 31.5666 51.9939 30.1607C50.588 28.7547 48.6811 27.9648 46.6928 27.9648C44.7045 27.9648 42.7976 28.7547 41.3916 30.1607C39.9857 31.5666 39.1958 33.4735 39.1958 35.4618C39.1958 37.4501 39.9857 39.357 41.3916 40.763C42.7976 42.1689 44.7045 42.9588 46.6928 42.9588ZM29.1998 65.4497C29.1998 63.1525 29.6523 60.8778 30.5314 58.7555C31.4105 56.6331 32.699 54.7047 34.3234 53.0803C35.9478 51.456 37.8762 50.1674 39.9985 49.2883C42.1209 48.4092 44.3956 47.9568 46.6928 47.9568C48.99 47.9568 51.2647 48.4092 53.387 49.2883C55.5094 50.1674 57.4378 51.456 59.0622 53.0803C60.6865 54.7047 61.975 56.6331 62.8541 58.7555C63.7333 60.8778 64.1857 63.1525 64.1857 65.4497H29.1998Z" fill="white"/>
</svg>
