<svg width="23" height="23" viewBox="0 0 23 23" fill="none" xmlns="http://www.w3.org/2000/svg">
<path fill-rule="evenodd" clip-rule="evenodd" d="M22.8828 11.5592C22.8828 14.4991 21.7149 17.3185 19.6362 19.3973C17.5574 21.476 14.738 22.6439 11.7981 22.6439C8.85831 22.6439 6.03889 21.476 3.96012 19.3973C1.88134 17.3185 0.713501 14.4991 0.713501 11.5592C0.713501 8.61942 1.88134 5.8 3.96012 3.72122C6.03889 1.64245 8.85831 0.474609 11.7981 0.474609C14.738 0.474609 17.5574 1.64245 19.6362 3.72122C21.7149 5.8 22.8828 8.61942 22.8828 11.5592ZM11.7981 7.40251C11.5547 7.40227 11.3155 7.46618 11.1046 7.5878C10.8937 7.70942 10.7186 7.88446 10.5968 8.0953C10.5089 8.25862 10.3892 8.40264 10.2446 8.51881C10.1 8.63499 9.93355 8.72095 9.75513 8.7716C9.5767 8.82226 9.38992 8.83657 9.20586 8.8137C9.02181 8.79083 8.84421 8.73124 8.68361 8.63846C8.52301 8.54568 8.38267 8.4216 8.27091 8.27358C8.15915 8.12555 8.07825 7.9566 8.033 7.77673C7.98775 7.59686 7.97908 7.40974 8.00749 7.22645C8.0359 7.04316 8.10082 6.86745 8.1984 6.70972C8.65595 5.91732 9.36216 5.29804 10.2075 4.9479C11.0529 4.59777 11.9902 4.53635 12.874 4.77317C13.7578 5.01 14.5388 5.53183 15.0958 6.25774C15.6529 6.98365 15.9548 7.87308 15.9549 8.78809C15.9551 9.648 15.6888 10.4868 15.1925 11.1891C14.6962 11.8913 13.9944 12.4224 13.1837 12.7093V12.9448C13.1837 13.3123 13.0377 13.6647 12.7779 13.9246C12.518 14.1844 12.1656 14.3304 11.7981 14.3304C11.4307 14.3304 11.0782 14.1844 10.8184 13.9246C10.5585 13.6647 10.4126 13.3123 10.4126 12.9448V11.5592C10.4126 11.1918 10.5585 10.8393 10.8184 10.5795C11.0782 10.3196 11.4307 10.1737 11.7981 10.1737C12.1656 10.1737 12.518 10.0277 12.7779 9.76784C13.0377 9.50799 13.1837 9.15557 13.1837 8.78809C13.1837 8.42061 13.0377 8.06818 12.7779 7.80833C12.518 7.54849 12.1656 7.40251 11.7981 7.40251ZM11.7981 18.4871C12.1656 18.4871 12.518 18.3412 12.7779 18.0813C13.0377 17.8215 13.1837 17.469 13.1837 17.1016C13.1837 16.7341 13.0377 16.3817 12.7779 16.1218C12.518 15.862 12.1656 15.716 11.7981 15.716C11.4307 15.716 11.0782 15.862 10.8184 16.1218C10.5585 16.3817 10.4126 16.7341 10.4126 17.1016C10.4126 17.469 10.5585 17.8215 10.8184 18.0813C11.0782 18.3412 11.4307 18.4871 11.7981 18.4871Z" fill="#2F2F2F"/>
</svg>
